<svg width="16" height="16" viewBox="0 0 16 16" fill="none" xmlns="http://www.w3.org/2000/svg">
<path d="M8 10C9.10457 10 10 9.10457 10 8C10 6.89543 9.10457 6 8 6C6.89543 6 6 6.89543 6 8C6 9.10457 6.89543 10 8 10Z" stroke="#292D32" stroke-miterlimit="10" stroke-linecap="round" stroke-linejoin="round"/>
<path d="M1.33333 8.58679V7.41345C1.33333 6.72012 1.9 6.14679 2.6 6.14679C3.80666 6.14679 4.29999 5.29345 3.69333 4.24679C3.34666 3.64679 3.55333 2.86679 4.15999 2.52012L5.31333 1.86012C5.83999 1.54679 6.52 1.73345 6.83333 2.26012L6.90666 2.38679C7.50666 3.43345 8.49333 3.43345 9.09999 2.38679L9.17333 2.26012C9.48666 1.73345 10.1667 1.54679 10.6933 1.86012L11.8467 2.52012C12.4533 2.86679 12.66 3.64679 12.3133 4.24679C11.7067 5.29345 12.2 6.14679 13.4067 6.14679C14.1 6.14679 14.6733 6.71345 14.6733 7.41345V8.58679C14.6733 9.28012 14.1067 9.85345 13.4067 9.85345C12.2 9.85345 11.7067 10.7068 12.3133 11.7535C12.66 12.3601 12.4533 13.1335 11.8467 13.4801L10.6933 14.1401C10.1667 14.4535 9.48666 14.2668 9.17333 13.7401L9.09999 13.6135C8.49999 12.5668 7.51333 12.5668 6.90666 13.6135L6.83333 13.7401C6.52 14.2668 5.83999 14.4535 5.31333 14.1401L4.15999 13.4801C3.55333 13.1335 3.34666 12.3535 3.69333 11.7535C4.29999 10.7068 3.80666 9.85345 2.6 9.85345C1.9 9.85345 1.33333 9.28012 1.33333 8.58679Z" stroke="#292D32" stroke-miterlimit="10" stroke-linecap="round" stroke-linejoin="round"/>
</svg>
