<svg width="16" height="16" viewBox="0 0 16 16" fill="none" xmlns="http://www.w3.org/2000/svg">
<g clip-path="url(#clip0_169_33)">
<path d="M13.3333 1.99984V4.6665M14.6666 3.33317H12M2.66665 11.3332V12.6665M3.33331 11.9998H1.99998M6.62461 10.3332C6.56509 10.1025 6.44483 9.89191 6.27635 9.72343C6.10787 9.55495 5.89732 9.43469 5.66661 9.37517L1.57661 8.32051C1.50683 8.3007 1.44541 8.25867 1.40168 8.2008C1.35795 8.14293 1.33429 8.07238 1.33429 7.99984C1.33429 7.9273 1.35795 7.85675 1.40168 7.79888C1.44541 7.74101 1.50683 7.69898 1.57661 7.67917L5.66661 6.62384C5.89724 6.56438 6.10773 6.44422 6.27621 6.27587C6.44468 6.10751 6.56498 5.8971 6.62461 5.66651L7.67927 1.57651C7.69888 1.50645 7.74086 1.44474 7.79882 1.40077C7.85678 1.35681 7.92753 1.33301 8.00027 1.33301C8.07302 1.33301 8.14377 1.35681 8.20173 1.40077C8.25968 1.44474 8.30167 1.50645 8.32127 1.57651L9.37527 5.66651C9.43479 5.89722 9.55505 6.10777 9.72353 6.27625C9.89201 6.44473 10.1026 6.56499 10.3333 6.62451L14.4233 7.67851C14.4936 7.69791 14.5556 7.73985 14.5998 7.79789C14.644 7.85594 14.668 7.92688 14.668 7.99984C14.668 8.0728 14.644 8.14374 14.5998 8.20179C14.5556 8.25983 14.4936 8.30177 14.4233 8.32117L10.3333 9.37517C10.1026 9.43469 9.89201 9.55495 9.72353 9.72343C9.55505 9.89191 9.43479 10.1025 9.37527 10.3332L8.32061 14.4232C8.301 14.4932 8.25902 14.5549 8.20106 14.5989C8.1431 14.6429 8.07235 14.6667 7.99961 14.6667C7.92686 14.6667 7.85611 14.6429 7.79815 14.5989C7.7402 14.5549 7.69821 14.4932 7.67861 14.4232L6.62461 10.3332Z" stroke="black" stroke-linecap="round" stroke-linejoin="round"/>
</g>
<defs>
<clipPath id="clip0_169_33">
<rect width="16" height="16" fill="white"/>
</clipPath>
</defs>
</svg>
